<mxfile host="app.diagrams.net" modified="2023-02-01T19:11:50.594Z" agent="5.0 (Windows NT 10.0; Win64; x64) AppleWebKit/537.36 (KHTML, like Gecko) Chrome/109.0.0.0 Safari/537.36" etag="wEm5T36u_c9dZ2yD5DL0" version="20.8.13" type="github">
  <diagram name="PÃ¡gina-1" id="00UVSpspo4d1KGAxAnCZ">
    <mxGraphModel dx="1434" dy="739" grid="0" gridSize="10" guides="1" tooltips="1" connect="1" arrows="1" fold="1" page="1" pageScale="1" pageWidth="827" pageHeight="1169" math="0" shadow="0">
      <root>
        <object label="" Experto="" id="0">
          <mxCell />
        </object>
        <mxCell id="1" parent="0" />
        <mxCell id="8MRoet4LOUmmTuBpo7ne-87" style="edgeStyle=orthogonalEdgeStyle;rounded=1;orthogonalLoop=1;jettySize=auto;html=1;entryX=0;entryY=0.5;entryDx=0;entryDy=0;entryPerimeter=0;fontColor=#000000;" edge="1" parent="1" source="8MRoet4LOUmmTuBpo7ne-65" target="8MRoet4LOUmmTuBpo7ne-85">
          <mxGeometry relative="1" as="geometry" />
        </mxCell>
        <mxCell id="8MRoet4LOUmmTuBpo7ne-65" value="" style="outlineConnect=0;fillColor=#000000;strokeColor=#6c8ebf;dashed=0;verticalLabelPosition=bottom;verticalAlign=top;align=center;html=1;fontSize=12;fontStyle=0;aspect=fixed;pointerEvents=1;shape=mxgraph.aws4.ec2_aws_microservice_extractor_for_net;rounded=1;" vertex="1" parent="1">
          <mxGeometry x="241" y="206" width="80" height="80" as="geometry" />
        </mxCell>
        <mxCell id="8MRoet4LOUmmTuBpo7ne-83" style="edgeStyle=orthogonalEdgeStyle;rounded=1;orthogonalLoop=1;jettySize=auto;html=1;exitX=0.5;exitY=1;exitDx=0;exitDy=0;fontColor=#FFFFFF;" edge="1" parent="1" source="8MRoet4LOUmmTuBpo7ne-70" target="8MRoet4LOUmmTuBpo7ne-65">
          <mxGeometry relative="1" as="geometry" />
        </mxCell>
        <mxCell id="8MRoet4LOUmmTuBpo7ne-70" value="d&lt;font color=&quot;#ffffff&quot;&gt;Datos No Estructurados&lt;/font&gt;" style="swimlane;whiteSpace=wrap;html=1;rounded=1;fillColor=#000000;" vertex="1" parent="1">
          <mxGeometry x="284" y="97" width="160" height="60" as="geometry">
            <mxRectangle x="284" y="97" width="180" height="26" as="alternateBounds" />
          </mxGeometry>
        </mxCell>
        <mxCell id="8MRoet4LOUmmTuBpo7ne-68" value="" style="shape=image;verticalLabelPosition=bottom;labelBackgroundColor=default;verticalAlign=top;aspect=fixed;imageAspect=0;image=https://1000marcas.net/wp-content/uploads/2020/03/BBC-logo.jpg;" vertex="1" parent="8MRoet4LOUmmTuBpo7ne-70">
          <mxGeometry x="74" y="28" width="53.98" height="30" as="geometry" />
        </mxCell>
        <mxCell id="8MRoet4LOUmmTuBpo7ne-67" value="" style="dashed=0;outlineConnect=0;html=1;align=center;labelPosition=center;verticalLabelPosition=bottom;verticalAlign=top;shape=mxgraph.weblogos.twitter;fillColor=#1DA1F2;strokeColor=none;rounded=1;" vertex="1" parent="1">
          <mxGeometry x="316" y="128" width="23" height="22" as="geometry" />
        </mxCell>
        <mxCell id="8MRoet4LOUmmTuBpo7ne-82" style="edgeStyle=orthogonalEdgeStyle;rounded=1;orthogonalLoop=1;jettySize=auto;html=1;exitX=0.5;exitY=1;exitDx=0;exitDy=0;fontColor=#FFFFFF;" edge="1" parent="1" source="8MRoet4LOUmmTuBpo7ne-73" target="8MRoet4LOUmmTuBpo7ne-65">
          <mxGeometry relative="1" as="geometry" />
        </mxCell>
        <mxCell id="8MRoet4LOUmmTuBpo7ne-73" value="d&lt;font color=&quot;#ffffff&quot;&gt;Datos Estructurados&lt;/font&gt;" style="swimlane;whiteSpace=wrap;html=1;rounded=1;fillColor=#000000;" vertex="1" parent="1">
          <mxGeometry x="105" y="97" width="162.48000000000002" height="60" as="geometry" />
        </mxCell>
        <mxCell id="8MRoet4LOUmmTuBpo7ne-69" value="" style="shape=image;verticalLabelPosition=bottom;labelBackgroundColor=default;verticalAlign=top;aspect=fixed;imageAspect=0;image=data:image/png,iVBORw0KGgoAAAANSUhEUgAAAcEAAABwCAMAAABRhDu+AAAAwFBMVEX///9YWVsCaTdMTU/z8/NdX2BSU1VVVlju7u7Ozs+hoqNFRkmSkpPKysvGxsdPUFJjZGZ8fX5pamy4uLmxsrIAYSmIiYtxcnPh4eKZuqj5+fkAZC4AYCa+vr6hwbCLrJfs9fEdcUMAbTuuyrvm8Ova2tvQ4NgAWxtzpYp8qZHC18w+g12XmJkAWxjZ6eGrx7hYknJqn4NIjWkteU9KhGJVk3KCg4TM5Nl+pY5kl3qLtZ9Cgl1ynIM1fFQAVQUPc0S6RL1YAAANP0lEQVR4nO2da0OiThuHURLMLDyhBuiioqaWh9zav7Y9fv9v9QCDwszcM6BZjC6/d+kwFFdzuk9IUqZMmTJlypQpU6ZMmTJlypQpU6ZMmTJlSluGbdtn7vImRoZhHPH7AZefdmOD3SWmr/3x3y7bmY+mi8fJ6u11tl73POVXWItirnKSCtX9I1IKsfIuqLVa1XKpMyxyf+FboLdKq9m4BS6TebdUG/tmpRyvXe3Lz/h7ZDjOaLBd/v7s9U3L0k1PeSSTICirJ0lp7QnKao6r6EWKplWqpTZ7UN7K0PXeZeUh2faOd1ctJKjxfrnCmZ74GWXYo+7f371+78U6UIuKIsh//sw/PSR45IWqplU7LIYAweAyRSsT4zApQYX324hG0On+nZljb8ytnekbTPAvdsWPE/QvlmsP8B/AJOhKq7SxtldHcN5d7cbWHpo1dXlOLF1Igh7DJriHQASVu6hkWUETtZrDECKCMqy70r4ZIqgw2uXOjeFE2dNfO3e5i4DSJ/7nkzE5DtOeRfdScByBfIJKOfrRTfuhVEFrGT5iEMHbe1iH3n2CSonR7vYsz/+LsqfLnkkONquLvpy/WiKOQa8HhdqbgAQ9GQ00FWqlyIeIYOzj8Qlq90mf5s9rulpb9Hpn9px9g8e+KSRBd09DI2QQlKQOGoVKZAt0FEHGuiuCFtB+xfwchS1GM11Igjm1Qp3ymASlZ38Uyp3wk2shKM3X1HbF2tjRFsbGEpJgTnkn/xg2wRu0x2mGn1wNQUlaEUvdS5dsMbGEJJiT68QvyiYovXsk1EI4jV4RQWkQXer03ohu8agLSVAtEPMohyBaCeXwgmsiKM1nh0FmrWyoRXeP0PwP+/w7CSqKFpy6NE2BbW/Y5lLiEhz6Pcjh7ueqCLoHP4TQzFMzaKCtnoigqiWTXIMJqrUirna7PbztNMqtnAZCxO1rHIJFv7kcHguui6C7J3Xp5fU1MIMG2jPmElRrjYQ6bArJDlj3b5cKgH2LeLQcgkbB+w+Qw/bXRtCbSXV8D0ro1UxAsHr0fZMSdO9VpmdcghaHoFTxCGrhceISCc4Hgznna67z1nb+JCJ4hDsWKTlBdzcCIMQaXDfB+crSdWsV3xCQ86kHJ/9UCUoPFMI7zDx6zQTnk7yPwBqccvXscNxIl6BUJtdCGbNYXhBB1paRIWey2+8lZyfcbRSabVImWCQ3pBp2qL8ggqtX3opGyN72QwRjJ/4CUhNhCFKDMHTFeroggouxNUmIwvmVj1o+9cfj79bPC0PwnghbuViCcyuvW08JxuF0QzjazdejbzYdi0OwfS2zqORtLUz9dWDzGs27PZ1yHlmMsTtaLBjf/GeKQ7BYwAle7E5GekOnM733tpjbUANj3v3o03EuzGl0m7es/hTsaZcXh2CbJHixp4nFwdRs5Web7dRx7P3DM2xn1F19mIDv3b/gN9CdvfSNZvoWIDCNep/MX9h3P05wSGxGZezbSyI4x6Do7vhZz5abzd+/m+VsZ1o6GCoYtKaXz9HezWst6Zn0KdpV2gTrGnFD7NtLIiitaTJ7Mdkh6Vuyr8dwtTSpmdSOTqKpE2zhYxDfyFwWwQm0xiWS+YH3ZL9hTvrxBP8am0TTJnhLHiZwF+9FERzFDTWOMB/StE/0ZL1iM+kG+1pPl2AFH4LRuBdPF0XQ/jwZoBW1yW2hWMPITOrg03W6BJvEECQDDmMJCuXhfTp5EEYWQmdjAQ1MMzxxzPvCECySAClWXA+vd4VQURYj6NknknUYYtMeYzW1lnbQxP4UZRbt1MgRSAWMcggiY45QkU727MRBOD74CBeMI6Mrc2cHjQZY7kRaBNuNCplpqGpU1kJcrJpaESracHvSbtQ0Dx5C+4XTTj9sSUfRmOA4gkf/FYTPtvKA1PFVr9cbjdJzsyXLVKCTKtNpJxyC/jKoPIcfCEDQOWUajW40B7wOzFn47/oUNowh2GonENYD6XUHAtsUKNZQKyTPfHFV9+8ThS4AQWKfn0RmPmoUnY95TZeRluF6ySeYSC2sh9MCThWlDCUQMgne+25FbI4WgeCURwCSPsOjCfu8tlgYgLPRz0WQWOpOyuHNNYEBKDEJFkuqP4qxhVOI7LMdhwA2noKnPyH2GTy7ztjG23aRtU4AgoX3B1ZFiz1BI1RxWC/n0CZWe462RQS9pZYUNrpRBugz0KzOTOdPrm6yvczadzzoJhXOO+WYv6l4Gmft9/LlqPsvE6w161D+rieUha1G06nvZC0IzJDxVCdEEAgnz2H/H0EWNhR3TmZtnKJ+MoLS1hpbT8D1PeY1OhBLtbUsC7fIpTSLane1Ovj/z6mEoMpEjgWzEkIBIAj2SOcvHq9kg7Dn+Xtt6Hr2NGpC/npnMSAeXCoEvU60Apl55olJUJFb5NlDDII27WOCCTLENI8nDUpMi6DHsEXPpTBBVS4076kxiwgqtKBZVAXaKecgGLrqubJZlzPN49AkCik9gl45C2oYEgT9ZJec2oSKciGChSatMk1QbQHtmuCB5lgZSUxrgFN+L5Z5vJ8wHDVNgu4wJJY2RFBtFgPTQbFGGmIiuvPJxP6F317LYprAMGOCAUy+GOZx0gnM1PkJhpNUpKIaqy+ZgEOeB4OYDHCsHEXwO/MmVvHzKGdKZCykVtKo/rMTLJSen5/L5bI7Sb2/V6vVlqtaRfHOBBBHYoNJEkSxiVS6vS9hCNr9+DG4YV8+AafRpJPo2QkyfBPGzbD+3JKBbSFu3qZsMk1/FQPt7cIQlBbxtrU++2pwFsZsooRs7CeKILRnw6WdQNCX0X6m03jVSnSKpAiiuBoVsgCIQzAI/uWJk+1iQJY53iSKZ6+RBCvleOET31FRFsUmhRDbzVAEb/zYNmrH40kggvHzKI/IBBqEbOIOHqr4k1nYvurUtiY6wGjLtl/gVa0BFhyBCErTuM0Mb1Y0PseWjsl64WSJdmMIfne8aOAniih6WKAJtv1plPbmi0VQeow7UnCTBqddXAub03iGZ138PEEqmT5aFgjwLr37R8Im1Y1YBKNOdFCnJA2Ccv6XOkGJXAsj5e4AggFw2iojFkFjyZ9IoyETX9L2JX2CQ2IQRgrkQRVikW+XPhKKRZCMCaR0WgEE+jY7K32CZO5EJAAN8tGXFRiVYATdZ8tFCKacHa+upQtAsMGM3IYIImv3HTWNikYwDuF+ENq248xdjf78mf7h90i/LsVekytqKgRJH1JodwbjZNA0Sh0JhSMo2TPuWrh2n63xZGHacYxnXTNoZJr9/m638nazW0sIgkXCORtWQwAJNlCsL9mLeAQlG8yB2MtLliBrwXI2OAPCVqevbT+FQgSCpHs9PBGCBNuoQDPkoxeMoGSA9pUDrrlNhcVYzFqGVCyq1fXNd0ISPCCDow39nQ/1qYgE3ZHDS77+GFBf0um8gWz68uXAm6VFIGiQBA/ndZhgUOgeeGuPeASl+Sd7MTRpIzZziwoE5Pf7eUEItskDYQzBIkod7OCfCkrQ220cFYvP2MusWJ2IQLBDphHy18H9kZCwugtLUJq/HhGMz/BaOMxocBEIkma1mL2oJA0hL6G4BN0pcJ04q4lRo4sdfSMAwSL5RsAwOZ711h7ISygyQcl+pF8DwlAP9FowJ1ERCFLvdFS4NhlPDcBLKDRBxDDReqhDcWycQOL0CQ4pN33oXmIRRMNWwY6EghN0NZjpCQaiCZVt5lQ6SZ1gu0I56UMMzPxB/40vuJdQfILunuZxPY4diVAUFKdMRtoEO3TwaKTEKJMgKtCtRKOiLoGg5EF8teAX6h6QANMoO6UpZYLDFvBe48gek0nQoL2EF0LQlT2Y/O6zMQLue165qJ8niBI5b4rt21ILivqNnvNi3l6HAbscgpL3dvLRYrKc7fLBq8kxJHReIa9CwjcTzOWqhFpItUqOLmfhK/IaFw5B5NiPViO9KIJItjMaDbZPm7fZ53rd26u/oBryYt++nSDzFfYQPR9C5JacaiQF8kh4gQQxGfZewJccT+O3EzxWmNeIQ5A6El46Qb5WLxZjEysaQby6Aa8ql0rwvm6C3vvNX02IomAEiZ0Pr7ZhlfASXjlBTzfT7QcFUSyC5EtAeQQf/INIeME/QFDyCihsP7D3jYhFUKkcUV/0hvAS/hsEPc0f15Hzh0gElRpZ2YlHMDgSHk6P/w5BV9PlwcQqEEH5/Yj30Uv7I+HBguMTrN3ewzp0fR0EPV/HDvn+hSGoaR26My5Bo4odCf1gm2j5p6juDva3ayHoavBpfX+sWkKpWq50VG1DXw2sSCyzIpD//3GNBF2GH98e8ZuEnqpprQZcjIdPsIhKpAVHwn+RoGQM1vzcJeUEgsxSIxg1JEWRlUq11GbdhU8QBdjsvYRcgmH5Cz8iQL4Wgt6L6889BpVCQlUqtWqz1BnySmHder3l4ApAru5Vr6PgHfYy72bqYZEt5bwfr4egOw7xH4kCzMdXGrtJIs+/lOiXQ61jbmYkuLGRtMtMmTJlypQpU6ZMmTJlypQpU6ZMmTJlynTQ/wHbyG4Eq9FPQQAAAABJRU5ErkJggg==;" vertex="1" parent="8MRoet4LOUmmTuBpo7ne-73">
          <mxGeometry x="10" y="33" width="80.18" height="20" as="geometry" />
        </mxCell>
        <mxCell id="8MRoet4LOUmmTuBpo7ne-80" value="" style="shape=image;verticalLabelPosition=bottom;labelBackgroundColor=default;verticalAlign=top;aspect=fixed;imageAspect=0;image=data:image/png,iVBORw0KGgoAAAANSUhEUgAAAWIAAACOCAMAAAA8c/IFAAAA21BMVEX///8XMlKwHxYQLk8TNFY4TmkAKUxyfIwAIUkAIEkVMFEAJkoAH0YAG0QAIkisAAAAKEsNLE4AF0IAFUEAEkD3+Pnw8vTV2d4AJEoAFkHKz9VQYHbn6ezy9PYADT65v8eRmqevGQ6GkJ6jq7YnP12Zoq7Q1NqpsLq1u8Rda38+UWt5hJTCx84vRWHf4uZjcYTgsrDz397nwsD68PDYnZvu1NLUk5AAADpGWHBUY3jHamW7RkCzJx/kvLrKd3PNgH23OjTBW1a5QTvCX1vMe3jSjIm7TUn25+e1LyicbpDlAAAdSUlEQVR4nO1dC5fathLGMZitX2BjgwNm8YJ5Y0h2Nw2bNk3SNo///4uu5KdmJBtzU9Lcu8zpOc1ZG1n6LM17xo3Gla50pStd6acgr3mli5CXQ/yLeqWL0C8FxJIkyVf6h4mAesNCrG5aV/pHaaNCiFX5x3D950SyCiG2/sW5/J+SdYX40nSF+OJ0hfjidIX44nSF+OL07CF2x+OB77ru5Z7wnCF2F/NDS3Mcu+f8Eq7n/oUecxbE++FyNp3Ohhd85T+O+vPI8BRq3lKSLVObX+ZB9SF252FXNz1NMw15cZnJ/EiaW2YGb0rq7e4iT6oN8b6p51OywovM5QeSv9FVCZOxusiz6kLcDy1mMm8vMpcfRwvF4gCWpJvLcOO6EG896f8H4p0n8wCrzr/Li/1bMJv/bX/c4oZnEqpmLi/0uJoQt7vsfKynC83mh5DP72FZl6b9Sz2vHsRDKBy04FLT+RG0wXxYsY/LiwFcE+J9CN+7d6kz9SNoaiKEtfXgog+sA/EEa5ByeClL6PI0MxAjtkYXfuJpiIdPPU44yN50z94z7vv98cln9feT+XS7PiYxraf1djqb+LVPqNsfj/uVdqU/WM2n7XUcfdys29PZzsf3j6cGXou1LpmtP1wG0+2U/Bcsh9xIzLzI2qvmdQJid7YxRCqkpHnrbCcvpqNI0sLweNhOBvGz+ovltj0dgoF222No657WtdLArGURQ1E3wjVW+Pv7wWAAkPcXs+16ExLaPLVn+4aA9svDRqHjK1byAEshZuhNqz1hVr8PJI9finLgjFV/sh01DcPUUjINMwIj5TfO161QaYat9Xa2iOc8XswPB+DvqIZ4EOoCDTIFOYwf6R4MzZJVSVUJZronbUbHSLoxu4pmH4pxtpKuybyqREhV9Ih5Gf42kizP86ToabraDYe71fQpknWTvBmakECQM70jeHl0+Gmk6YpoprKiS0F612KkecIpKPqRhcSfbxRds9CtcpeMhEEmVniydtnqmroUjUYtSfcUxdSYfVAJ8f6mFGBCBn35flNj50IeRij9S2bzD49OV7i2bPa3udK/e6vFUyaqN3lhumHoZLF4EtbbKTvLVeRoFfNU9ShGpu0Ij2N8S7eVjzY53nolN6qeNwEIH2ywLGbtyrEmxFPBsSqAUcjBcDfd8juMeEL7J7t0bRn1UmYxEBgFIrILlWYSGVX7gJIe0LVwTJghVUolybIl5ovZfT325VYMqUrFuaiEONDLn6Y5dI9OK+6QbDrvmafAhyueaaK/EdsqeeAT+nsZyWEKSf9wEmCiYxJcXDGPSMnYJmeoVc4XU3oZ5OgMK9auhoX0r4S4H5ZsY9m8adPX1H9bMRuTvvF5D/ARTW8egtlsftAgmEbMU3ZVOw2QnfCggaSBaVmaRwUe5PpW7N45alIZKb02Hcxtwx0cj+Z1EVM2co/nsWK/s/ZvtbhzpyJzXtFbs0TiBxWcxGoRFrhnQZP1cJpp+eM1wNicxZv4JEeB9y/egk1nhuvpnKhtTy3J0LvpJdWU4mf2RwL3JZ2mqa1jjWJhMS9BtUwzetrOyXCj0GR/aGVse4AVbIbUHqOknNKLh9yqLeOQS/So/FxZEhWqywJiAvCM0Z198HZ0ylwHNj8K0et0gTCL79/L4II2zwW+P1i2W4auaZ7dDLKHBjwmqq49pQrWkuURlvE022ejjWcK+0MjFXlV28sJGAhPmh5bJM+8TWFu7ksOH9ErjMQA9G9MqmzJium0lkDlcSN23vpO8CjC74/BcrUKjhz2Np3ECBwEDagZ5AH+KgjmbBBsiZmnJa8y/Ocs/uYRmtRD9vlKqotyro5s8Zb5y4z99UmIpxBG7cBcmwtepBprx8dM5PeDTShJ0YEzGPZgvQ7VThy4y2RvmxkgE8SkY3GH/qifDgsh7mm18lMVsCBqbfxD9rSqcvzW9o4AXrJ2TT7OoaF7EuID2CrWhr3W4k6wpcuj6aSGW2W8YX8rRw1ukykRM8wM+m66FIQRBKy7PfnQLViLKuevfQXc4QrnCwALdeLzOeVOMFGbj9sJb3uehBiyW521doecAmBslrUcRONVCFbrUdsDnjylxfKVPjwvdMe6+OlEbJ0IjcNd7AXZ3wca9NViv8kOvPzkuHAamyYFQtP+JMQ+OA/wchtpsVavRnzRX+yCJwnpnw6Z3B5sVOYQU3JDoPtJVFnhvFOKHq5nw/J33IcvRcufgNiqBVnxYAplhE7l3QRDbG/L/GCnIF6ChQNfvI+2kRWJ32K+wt1s29JtQ/ew/R9rkeDkqQocy22yP4klW/9W4oiIVfKAVnu2EznwVgCWgrFw9pNlaMdRQmHoGIgl2FQhOyIeqZfvrlMQw6EcduFIa5GlUoRdfxKsmz3D7IqVPDo/F7j9cSANbtlkGqWqPwHacKI2x7PgD+xMdd2LDB4rJYHvyiTbdYD8+nZFkOIExJBPWEf2GmRgyfkR0H55aJm854ohVeoj/SAWfyyBw5ROY8er0ewQiu6tgZKBeF4z+/uhws0ioFin2iI9i9NB6kMc8AZCRkhngvDn+Ja6GdkJ0iMLNBcDK2BAe8hSSua9EwMr+ohhkFDFzIUdz9MrSVbI4eijDeNVCfkTEIPTq1osh0Pc6CV24jaoW6XSzZgNe0OOrM8uVG6igcYs35XzXKQdFpscdZkpwwCknrG1bbnzgp+qZTapKJxDPoGtnnMghnJTYY/DAHFiPgdrv0ZeTFkzbUNRsPiIuULA/tHDSSNALTaD/O/uPLKrX2JxhOFa8nDSWMIcTPF0w7B7vZ5tUNIzMmy7OQriV4YcB1qlnK+GGGr34Piil28Cm7ERgwZ0uq7e20yXC7/f95EENymgwNdo4HMHtCqFveoOpy2HZliqHFQxqWp29xqsJZccO6ROeMZhvhwO977vD4aUdquEJsNBFmgcQilwIsBaCfECsFvWB9oYp4qqbClxVAKr6+MRO3XZ1Nq7wi4YgU1wO0b6FBew3LMnpsuJlvFu3m4pmslrgxSydIftgRNIjrLZQCtNNbngkYCgxVulsFGqhBjmAAE+kQg7RY/W7fVG0bBI9UP2p2YEXUDAaRlDBrapjjUgFgZVL8m87Q+G87WEkyRUOd3F8NQVlh10oGolahGgMXRPqGr17VUQ9yv8LPTYqfYhMVn307dQ2Pkgj9NGrBWO2xsgxh7rcCy5LOuDXhJMfSSIJDm9fYws8Ix9gLFr5lQskbALqm+vghhOV2U1E6oAyMwrH8Dj1QIaGN6UgCvGqwJbjOMEQFCdOJXY+5cJ+xkU3Lm/cAz0jBJXkj+c7BiJhuzt2xNumSqImyjNitlcdCEa3bn3n999vseDgpifdYAXx2uoaxPI+sA85jgB+0qyKF8pIfGV6WbgCZKdHzp3c2oXj+dRrFBE2btFMdyTOZQVEC+QYckeCIK+TnSIr791KP35GowJFXOkNO5CGG6j2RjAjclZdnubH22yNm97oSh7BPHW9ETAqKBcxPSRouFh7X6/tc3YiFbzVATkxjROse8KiLnIiTbNE4CMGImH3zsvKN3dfWXHhO4W8JaHTzY6GhSyY21hl4Q79ptY45a7RhTAU9pvA+YWJyJQOggihekq4Q+awMm2OHjFw9MDBLk30bNOqSAVEI+wm0X1rHayIsI7qaPmXYLwixedv9gxUYBIO6TrdFdHE0fxqdYOTVgTT5mNTsZm+kDOR5FN65BLYX93UKEKlrl6fLgUVqqg4JisBRk/7C+POjtdJZGcSCnWTkYCyiF2BbFPVTPoW6ZesZ7f+JohTDBmtzEOCCjOKJjNp5uezumtvBuTM0bBmaDcyW2xgKmK7rRG2/Yxsl/qCuSSXoY+FNwKkA5tdFi93nG+XM6moWNCnpOmo0JNVjJPhnjKIfaF5lLM3GiShuI27hmIWZHHhSFpINnTRL7HWD8ALjvOo8IeJlXt46IISrLVVbi0LIJJLjePYssuoRBPTKbJNMgul430LLrQwVhDzSuHeByKII7tD8In1CaE+D0zpl/fsdJzkVjlNDZwkOMX7EZ10i3kXjvXgJBlF8L4hC+dzkHSw0yfQOk0J4VdJS8WRrGpDyZmIYbbeMNADHSKoG5Wj5a+MGYt+NyxHiA1ZlONgXYKE1WxN4zqB49VnOLGUv8ozmLJSPa8IkUDChqr1ThJFRAvXwqeRn0wsXiiPqE/71KE736Do5ZkmsmWorBhBKXZR6/SwMsHfKKbOi/8EeK6kCzTWgPlCzJ7gXk4l3EhALNiI2T9FiAMohrVsbRTEDfaLzk/X3wu4qAd5Rjvc43iDRp2iT25qqUZXmt9aI9kOwmByF27FU+wiDqoPT56wLBRS8v59O6gGCIvJn2Mtp4hfj5jTpW+EYX1+kFo8G9NVkwbK9+sNahWxZNqQdyYKbanpEnnluLpTlp4su2Rv1C78bHTIRu503nFjTteHh3DpCl8NB1et3ujYJeUEfT3y+k6dHrRNmVjA8OzZJoEbSiCGc9ulTifiCjBEmv29VfblmPrptZNgmzU02Y4Cn0MN4Y7cjSaPK9oulHmSXN37aaje904yT4ezXbC9myAb9/d5mn+JucaENKJqMdwfjhGSe3EIVjlk5+Rv0X01L5+d9e5++NrQ0TucDk9rFut9Xq6rCz+94NjZEWbrSjTn6xp3ZKssHVsr7jL7mCynLbX66fRmpZ2rIalhSPD6foYHQ9T8SMy2k/m2/Uoio7rw3Q24dBNh0oAaUXHmu0Vvr8fxcPZv3hm9Jxbfvwg+n6I37x///r0Xc+YvhPih8cX1NX2hfNnXimn74L49YdYoyB6cef3X8Uy70rfA/H9X53CvLvrdN69P/2b50gY4tqdJl597Ny9ANTpfPv1ql7whDq/SmpVv27FOybuwa8Zh4BEtvKnhCv3A+VHNRH/6Qn1L6b+whKydKWdGHdv3jEcgkP542PMlfdJRe2VqFkOIS4hy2jOE9vp1W/lAKdb+S+6lSeViZPPi05DrHbtTeJQePj1hYhDUGQBV/7SqC79e2Z0CmLZtDIO8UfpBv4G93bnUVRw8mypGmJLD1N3x/tP5RyCQAo4dOcDrX7+4Uv5WakCYtVyNkk62sMjp6QBiKmI+/qYc5H/lV2sWjTTVdcqox74N2rX03XaxqH2r8ohlvWkPLjx+m9WSbvjNnPnXTrC/V/JbZ0HnH/5M5J8o67nq+FwEjTrFyMoZtierVbDyWor15U2pRDLYRKeuQccgnok3mGr402jEcT+3M/xnZ0/Go2BqLzypyIlj3meUfBhHorooovrlsqoDOIk+/nh8TeWQxA7+U3jASF8940YG71ey208/H6XQd4+r0rlx5PFhpj8mhsSZpni/O8yKoM4znz6/AJwiM4H6rh8RJyCct6ZSfNiXsVX7j6Sm5xz+Nu/QCrItvfrNRtBedT7m3rPKoPYIH/5woBJ3WmJD+JPzCfInyOLJkH+lmziVwTymk//1wgG3vhiYxGpTZiCsa9pXpVATNOS7llX2m9ZEPQeb+K/aQYHzYt53Skg/8mFHUoArVe3pKNk9LptYEogpunMv+ZR/MQobri06cE7DPEbmvpIc6f+zoVdVeOcn4J0UP/jiotxEOE8ImG3CBGVQGwVu7jT+SOOHblziaa8IoRpnopv0NRQt5NDjkvQfzqC9T+44YWYHFxxWXeVZbz4tkF58R1hwZ9jFuxvbz1auMkJu1c0F5lmVCZX7r7Ulh7fSaosbq9Xg1DuXB1/imxzhW+H79vFSaLz5y+fHmOAF21HU1WF6L4vMJHrqmoDYYerWhJKGuXJlcDQpCylomCakEWsK6PnKUoYRU2l6xi6Jy6xTj/oJyIdZGTtBV0B8FhGxLdt2Ze0u8RUanpoRfbN7mjQfUm3qljY0T2fCrsXubBjyg1lTTcco9naxNRUHINv1Gxpes+Ing6Hw1N4W5K1Jnu2d9zOVwuf0Hg87pP/LSaz6Vp+CfVw2ex50WYTKbc27d9EWxgqpvFSTyCRYbqfSNjBHNdei8+UiTnMyK4h18utOytNiVpG6cxu91T1hc4KynlHFoU4ydSkHqC4yN7Sb7QbJc5e0/XWdAlydcbDeWQwbR5p+8ZNMMlV1f7kgAt56XsyWvOylOkBaLNmhllimztYTlueqZvKYbnwJ+tYDsNi176KG2SQ2Ziep5l6MgdjJKjwzp5bQ3cq91GoRhQsl9NfshTANF8ZuNzu/kxaKTnjxkPsNKZ5sLRGRVvv/IZ/MGylNd0Jd8CgLelanI6my0f+Hn8L/Sy0zVtlIqQ/ytiTytRJp9fyXrJxtfUNEHawYkw2yWwm8f39xZQe3uo28zXSqaucmbJmmsUIeb7y6w+FT+1V4lOj03hPcyqIpee/LWogBoMKWPqT7Xo0Okwn4uywCVs1iktQRZQVFXhVxXmhikoRYCa1GYJctYnOV70jOi1zawWWYrxDt/HwKTFAHrL4UidtiCLTfj2vH3+labBEl1G9kvmcRQWPlHt1ipPTbGRsIUAi2oMNJBeTpq928XOI6vuyOj1wcVqtqA0xLeCinPhzkpVCYyB3nc+ZUtnNi7/mOltk/D2Um7WWVO+bQwv6Tk7UX7Rk1NmheJFWVtFRXCNrMSorZvbS9/BiRLSA62OcT/wpAfnh8U/KedNqQq0Vp7juDxQX4x/5xMA4TdRXub5D7n45D4I5B3xcI1Eumxq08BKf/KyyVNZHCMxFZMavrPwA7bc1Ws/WhpgWcKXlHYQ73Ce5gm+YsjnZjoi+1aMCAjG7/5bG6dCYG+6n0UvdI9TDOe+EU6hK5ZhE3Jng5KeObTkLAefU36Y6CutYZsmdrG9q+TbqQkxrqRL3BOUO3zrv0lxBJoBEu1PE/+Ca+/x3lO1iZCgczLwIQUdleoTRVreR2WmSAvtdxMU2lh3iKc+kXKORDUF/pX4g6d9pQCOimyN1T3S+UgOEiLvY8LvlBWrRUQNOar8vO3L+XiRTBikvZivsdyObWRjmu4RRvKxinfSbE6jubvLW0601BngQgTKmt9z05kZl1+n/BmIqwFInxF/pdr7r/CoqZBQLu+E2vLV7NyJhP55Ht7ZjBVy/vrxNgjdaxq1kltsQNhzqQb/BQOPL1HPqD+aRnla2s7QMOKVxvEV9jXr4jragnut7IablM4kvvnOf1eZSx3BLYKXz/Yj6ayPug6faAbf0YfLdBVXfYIwZWW/anqLbOuz7bznoAM/MEi12v9qOVDs22qsZSUy7yIQ7VDXQHcuzIpP1IC489DRslDiSaeB5ICgL5LUmP2+RADuRxQjn7da4okO+tWw2SvyVB+eIjzdRbkQ905YtTc87lp+ulQs4LUHGJYznRRzqQUy19VTYEe7AOIYFUVCu8WC/WWx1B0HQV/PZ4v21F0kTWtp1I0VP29mOYyy+KdJldpbOnDRZ2LOPpQPfrhvPrH7X+5hqQSy33Jw7fE1rGql7oi8KF9ygOTcOjGqDuRrTEAIvBLN5VfFsbXMIJoMSe4vwCZ1TiucwUHuq801jLXDE2mjUw3n+8FoQ02ZqKXcgwu5TwpMfsQclRQq3aNgxDSdUGTIKthWdidgo6Fij6E6zPV9UfmaJGG6csJuhDeedMMRXggaPWEKeG3GoBTGNiKeJPvesY1hUi+5grYmViJhPszu1B39YuLBkTbfaq5OVhIMe35Jvj2TFSWEnCoDgH82EEYdyqgMx5XApd/i90fjQyXzxC4Fg5RqUggA6FvjMTsXadIY+9WLWclFsu5KN/zZCG67a4UAnJNihHvpRqRguoToQU7P/S8YdHr7lKT8inqTjjQRuQvoc27MNM5i0iF+v4cWMyfV4HoXTvk4LO4Gej0/e4LxmsbUgps1+ixyJQtiNBTEv1UIH2mfjajJqVcC2pUGSKmkGazliL6bgE3NkLI5HYYWHe/8cuXyODdaQzs45rQExPd1FQuCXIgoq/HwcmjNgXFieMzsc655xhy2vxWmx7nDZbimeyYUrjxankI8R04w735wg7uNdKu71e1aubE2I7T3DHV7n3jbUEjgFkVs5e5OOZ8tcQuEb6mPUsfvFnz3Zhhk3DrE0uJEHHt+ADMslReDOweTjwCwWofWSs86E2HFTYGlayociCirQ2DgPAGjVjkXzohhBRYjRWAS2todrs7AicI0gDfXhPYoVnmpXckp4G5vIxDmnqXRCNSDu9VO7g3CHLOXntVjYcUoR6KjXQ8ee4TQe+iFRD3QovNw2cB4iPyZRsLneTQtsu+AjLyS0jTkRen66Xg2IKQf9QBODvuX5rZ/wl6hScjDvZOfLdSZmOv/cwL1CEFMgZ3VbwHvoId2AaAKcZYeFHe8iWj01Iy6+DPssYjWv7MtSFVQD4rij7a8fv717yFN+3ou/lcX5S0C2GBbNfpHAgHc/UQ/Qtz3m7EiqfUAMiQvJEY0Qf7nQRsrOIjIsVbaxgAa92Dg1zz9b2tXSi+OYrksd8Elo6e7bQ4mww1sCdLLDmY0MM1fQ6tcW7nTLsEBVl/BzFj3eS80JO4TlKk0QMaqYG+/7nt6eW1FYB2I1j5v/nYeWhNmMHhI4wH7leGXR9Ayvfs8f+8nbZGWqpZtzTit+svhGwphpor51q9yjdou4m1tArGLLrkG/9FAny+pMiOl3aOc09lOElvi2pZJAKQLcEIPGfDkJXyLaPTZhGpOWR79PII0EvrK9oXInmrPsoIE+KOwmTp8ujAtxZ9fh5ixHUM2oh+zRBr6PhbATZTNipQh4fOOvT4GJGsUltPuJUqzwrvP9ZDUZCI2HQKAUY+UKsXt2j2NlvijiwOZoRme5KepGoGMYPmahJaEVyYVFwSZWsD5RXMVSkjIh3vNbQRuZ+1TFGCfEwiMP2qdzrbTzTtNlTbbPcrbVhZhy0vvcshOm7mPRsADlJjj7blwwc3xSqcnAf12inAamymHBde6HjAQyapyVkCMol6QWnVV+XDuPYpCHlh6prBDcgsOiUOewkeBgMEDHMeEgWr0kK0rkPHjIzOXiMfANw+7bXNx6kO3xsi7b63O0irq8OBIKOzY1V5XgNNAyHKiyuexBhrItGVwOazT9jGl4w7/ANmZkDosV90lAE6qIhX0hznz1LxCBjqXJYx54TjwPitFrhoqT+Q1UuO92yC0IFX8X+L6BlZo5CWRRE02alA0/AtHYUQsSSVo+4uWwV/nvWxvgFBSvQG0KnPj9su/niqkmxDcuK+yotLbMpI97f7VJtd+sajr+6xaH/62nYh/15xb6ik47u7h/Kpanh3P0+cZd0DLjj0Bo9JNN9Ot+y+Tp1obdpfAr6jEpuT04eBL4r1RjWwywYriMzLUydWfWecZHPYiLMg/qi6e6ucZ8EXqZRuplexNMhv5iMl/bvJ2pKNvlcDiczKYbh8tW0sztbDJcBUeHnb7sOWE7WE7oB6VW822rV/TUtWj5yK1jZy3fu5uJn9Bu1hKV/XWtaVy2f7TFAGlkervhbhkcFLg7PH0dkCsxrWbB2jbPNKFr5lHsWWG31CVtTd/t6/tXb6hdPcgkG114T/B90XSVJv28mSn+gBotRBJ8ulyO++bS33klH9ZMydJ7CQlKdWJStbj5ROkgKp0emR1fyUNXlRC5fH5Dnnrtl4juwmRZRYnP5esXWnpw9/dDkeF3JQHVgpia90WWFdF3qYvvfVrw0aEqRnBm4Ps5US03ENUO75gsK+q2ydIpEvZ8fkTr+VAdiBlh9zGuUzN2oNycxkq3P3uPj3+P6kBMVdoi8EysS9kH5ebULyRKNL5STHWiHkWvibs4y4r6e2Cl7kNjcG0vWEY1IKZs4XMeeB72Yp/CexZiomacH/t+NlSjoWOzwWZZ0crFsM9+nObF3Tf33Jzb50SnIaZRtPd5r4n+Lf08tg+6JtAkobotRp4hFRA7XUVIL2c5n6DtPWzyJ5pEwvT+iMv5TfGvr9Tt5RAf2iW0y51s5K7kTzRIk/e/imvLS399pXqFng93nRd36Es/D59ob4q7uHr/St9Pr7/cfeO+pXT/17ffP364fgzhn6J6idRXutKV/m/pPwX64J8subzRAAAAAElFTkSuQmCC;" vertex="1" parent="8MRoet4LOUmmTuBpo7ne-73">
          <mxGeometry x="87" y="27" width="72.3" height="29" as="geometry" />
        </mxCell>
        <mxCell id="8MRoet4LOUmmTuBpo7ne-95" style="edgeStyle=orthogonalEdgeStyle;rounded=1;orthogonalLoop=1;jettySize=auto;html=1;exitX=1;exitY=0.5;exitDx=0;exitDy=0;exitPerimeter=0;entryX=0.25;entryY=1;entryDx=0;entryDy=0;fontColor=#000000;" edge="1" parent="1" source="8MRoet4LOUmmTuBpo7ne-85" target="8MRoet4LOUmmTuBpo7ne-93">
          <mxGeometry relative="1" as="geometry" />
        </mxCell>
        <mxCell id="8MRoet4LOUmmTuBpo7ne-101" style="edgeStyle=orthogonalEdgeStyle;rounded=1;orthogonalLoop=1;jettySize=auto;html=1;exitX=0.5;exitY=1;exitDx=0;exitDy=0;exitPerimeter=0;fontColor=#000000;entryX=0.152;entryY=1.015;entryDx=0;entryDy=0;entryPerimeter=0;" edge="1" parent="1" source="8MRoet4LOUmmTuBpo7ne-85" target="8MRoet4LOUmmTuBpo7ne-107">
          <mxGeometry relative="1" as="geometry">
            <mxPoint x="539.625" y="294.25" as="targetPoint" />
            <Array as="points">
              <mxPoint x="348" y="481" />
              <mxPoint x="533" y="481" />
            </Array>
          </mxGeometry>
        </mxCell>
        <mxCell id="8MRoet4LOUmmTuBpo7ne-113" style="edgeStyle=orthogonalEdgeStyle;rounded=1;orthogonalLoop=1;jettySize=auto;html=1;exitX=0;exitY=0.85;exitDx=0;exitDy=0;exitPerimeter=0;fontColor=#000000;" edge="1" parent="1" source="8MRoet4LOUmmTuBpo7ne-85" target="8MRoet4LOUmmTuBpo7ne-111">
          <mxGeometry relative="1" as="geometry" />
        </mxCell>
        <mxCell id="8MRoet4LOUmmTuBpo7ne-85" value="DATABASE" style="strokeWidth=2;html=1;shape=mxgraph.flowchart.database;whiteSpace=wrap;rounded=1;" vertex="1" parent="1">
          <mxGeometry x="313" y="356" width="70" height="81" as="geometry" />
        </mxCell>
        <mxCell id="8MRoet4LOUmmTuBpo7ne-86" value="&lt;font color=&quot;#000000&quot;&gt;MÃ³dulo Extractor&lt;br&gt;&lt;br&gt;&lt;/font&gt;" style="text;html=1;align=center;verticalAlign=middle;resizable=0;points=[];autosize=1;strokeColor=none;fillColor=none;fontColor=#FFFFFF;fontStyle=1;" vertex="1" parent="1">
          <mxGeometry x="126.24000000000001" y="221" width="120" height="40" as="geometry" />
        </mxCell>
        <mxCell id="8MRoet4LOUmmTuBpo7ne-88" value="rawData" style="text;html=1;align=center;verticalAlign=middle;resizable=0;points=[];autosize=1;strokeColor=none;fillColor=none;fontColor=#000000;rotation=-90;" vertex="1" parent="1">
          <mxGeometry x="237" y="317" width="70" height="30" as="geometry" />
        </mxCell>
        <mxCell id="8MRoet4LOUmmTuBpo7ne-97" style="edgeStyle=orthogonalEdgeStyle;rounded=1;orthogonalLoop=1;jettySize=auto;html=1;exitX=0.75;exitY=1;exitDx=0;exitDy=0;entryX=1;entryY=0.85;entryDx=0;entryDy=0;entryPerimeter=0;fontColor=#000000;" edge="1" parent="1" source="8MRoet4LOUmmTuBpo7ne-93" target="8MRoet4LOUmmTuBpo7ne-85">
          <mxGeometry relative="1" as="geometry" />
        </mxCell>
        <mxCell id="8MRoet4LOUmmTuBpo7ne-93" value="" style="shape=image;verticalLabelPosition=bottom;labelBackgroundColor=default;verticalAlign=top;aspect=fixed;imageAspect=0;image=data:image/png,iVBORw0KGgoAAAANSUhEUgAAAOEAAADhCAMAAAAJbSJIAAAAjVBMVEX///8AAAD7+/sBAQH+/v78/Pz9/f2CgoLX19e8vLzq6uqPj4+1tbW5ublKSkrCwsL09PTe3t6qqqrm5uYeHh6IiIh7e3s9PT3g4OCVlZU2NjZTU1Pw8PDPz8/IyMihoaEpKSlbW1tvb288PDwXFxdwcHAwMDBlZWWampoQEBAYGBhOTk4iIiJXV1dEREQCUJBaAAAYpElEQVR4nM1dCXfyKhAlaRKjrRq1Lm2Ndrd9/dr///NewjpsA4lLyznvfdFOYC4DXGAGJDmhKU8L9pCmGf03S1P2RZGaIjkXiZG1RDIhcmJZRM1jAJKQ7GmULo6p2+5v9irlxFbpIJsdA5CEZB0A4619IgumkaWcRulfaKJUpFs7IX8mRTe0LlXTSpXT4XA4Hg9Zsh7GjofTyg53C6V9CGDWDWBRL/8lfyJ97UeiyoM9yW6ihefNdP7I87+68j1cqYdTyF75ZZOHaRxAYrPHdlS53rwR+GLK76Jrv2pq/vupoyjF+FSuHj+Tz/frESm0N9Mnge/s2nfIbkCyIJvpALcKx1J7cya/v5j2UbL3o0AT5Ywvvh7JcaTJ4TtTb9asWfy5dJW8LnALZqmG+0e8SOvoWb5ZAoBPd+O6/NW0my/flZqvI3xal0OAew1gkuz5QFtJgK/7ikDjow9ZdlLZDI4bm1Ui2up7mgUmXGrIkbYXBtux77/EN3ei8/6BqdriQaj7bPGBG2BGdibAJKEWE6ZNapKfdz3YZS5KyLXQa4jLyk8ciTaCTZq/bEVGGxKe9VxwNVGQD2EPXFZ9WmkWZEgHhCw5wJJcajURvR5ccjX3aN2qT282wCS5STnA/bkBZj2WS2um778sCiC5c07/Buyf935N9Mwr+lIOiX5Z8GnomkUIoGNy3j7Yx4KN9k9MuzfiLxp8KiQg25S3f3NFL8b/+9QLMIcNdmDShWqrqz8JsCDVLWtooxiARb599QC8ahppJMBLbzo9MDV3iCz8VLqb6FXLhR2VvtSm04CpuUfqVvt041uzLOIAkqy4LEAyZwg/sMajfVomdhNtH8o4gIt61B9gr43fG6bkNSJrfPpyjzb3ObK1JQEOaFmX3PgFCOMA5kV17x5tHkjQKmyemNyczoIkJJsqhF5Z682Nhy+WQaXJCxV8Jmeeqmn70zpCJ2dab+48W1tjXOmmPpn5D2Frn9D5csO0u8ZkrTc/hNns0QbnQbYKmZPuAPv7Jm6YdtddABLy7B5tPiuCK521y+7VRQEyfsPHN9v2eTpxjzY/ReEsRWVe35SXAshlb5h214is682RZ7RZeZQ2dl8vCLBFyEYa3J9kKVI6N2jZ5OjXVvSu7CDjdwHYTobco83uL8xF4f6gQhgHUIUv+FZSI4ez6uIWVLIm47smBe43c/JtNFH+INaacculTH+II3qiJ3zWoyN01S1x2b79Or11jTZXDaFrsqgFm9b+00wB+MZy7FStWiUqffgZiqqpMb6n8fjaycIz2tzFAxxxR8jAA9BtwXUCE58t+uatkPE7Amx3piQ+bU3cbjGLXow20ewH1kpsH9zpbeZzi8hqjO/r/v5tiHZ70QDIHsbj6SYMsGADMntnET+Kzo02M3MorYpWjO8d37C9zmf3aEPT07wiOT6KvqiXlzZf+WhibvSOGQZQMT5GKY5ShFXujfrUHj7vKhQgAbJri6+8PDg3SpphPQnwYS+A7fTN72FOkscSyNrtBMi+kFiALUKtzcwwzlQI/ctWDa7Vr2rPaCMe5hjRr4Hn2CPisMo8SbSSNshQYTG+Y45hlGIALLhDyh8ssEdW9Grql0x5vuGpmnxLlDQr/ABNhJ5JFDZf4rM3f8BEckP85pHM9uAVsYrmCNWwNiNe2VTnwz4Ac4YQCfegS3+n9k0uW7Zzk3ylsRZMU8ExsoCZJassKHd4r50AiQkQvimUHuAAr7jPwLsE/3p8/x7rdRBYTcxhAYIPvUMFYHzfPD8wpR+gTZQ+/KQYGXHXf/xyycP4HjsoxvcuZAJrlgECUNj2gO3fmONQcD04N9rMDJEFjB/aePBOvwYJ3kRpsmbHxyx450YNzjA2A4zvKzoAsEUYBCh2EE+zorcZH1mKKoTedXlAI8Rrqj20gZAnipNRjM/+mWUYmxmM71jV4RrlAmG4M76JeLAj92QEQtkZZwU2VGgrYPf6AV8CBRkfEBePCTvS+eJlfLeaGuN71uX4Gm8QaqLgi39jfylEs6B4IEZqi9b4UCH0qAn40A8QrfIBajhzLjDZkXBUirRgUV0/yHQQbpF5olegzvhmvooPvXUbaFMo4+trYprWpSc7uw/m+Yv2aslodW5U3AyxIEToHXEDVR7F+KlwV7Wfv2pQCjbIqDGFVw5rtS7G9/ckyfj+3oEDVHzo74MfzQA4gkFxX1Mx8uO7atd6drdsNJ4bJc5QNvN6uWMBSj7098Epm06UIoS6TY932yDAjPkb1RxbItRLnKFsJhH6JwU4QI7w88oyJQf4qJbgQxEHT//wPS3kpNezHlzqDcJAKPkwE0rDfReenc/LDQZwHKDgw9s705T84SklYOhnh2qkyNt0a1pQm/Us9ewowtxmfA4sI/XHnUhjsVnv9nLrDIW6eATjj76cAJdEjyJP58a5qKd9qSbA5kxmqWfXIswV44ssZgLgAGb8vmVqOr3c+oom4MPi2Y62riZ6o8wj+kpx827Y4HU9GAvPsC671OfYt5W5jwwQyjB0ke8zazw64wuAGiQcIGP8dh0/tgD+Vzom200m9ZOhI/34tfqYj+tFCtZtS/lHKntb0QbhZPwstWbIbAxxeLnNNSkOUDD+iD2pcpv5S+VdTSzu7hW0RE9DOa5LhFzp2ypvs3Ptebf56mHoPHzd4eW2F90oQMH4DcJiIottv1kVyHKJpPXgU9NIabYTinCEsjk3NiTEuedN811B2SuFMGEI+wIUjD9qxuoRBLjH14OUIe/keT7Y7B6k7FID6Gd8lu/KmM2ZCHsClCNNO2eslUbuBa+56UQWw9XPJ2yjzcs/sjLiGH/DzbMyxgFatB3XZu1P4wDVWFq0Ih+sfdAzca7985IOmoXGtmRUzldPj0rplbR2N8ZfGS2eFm0xvssRjVlQjmALNvl5YblP3ABbjQ+EaGwr0l6qNpLNealPAU3GTwRCIhBqf2FF94pr0/qVQEi0+p05tra4z/jNOVUrpWq1UmSpN7sWYeplfOFBkbXCitYZ3+lCCYSGyH5I04KXsnRtbfFwuOdUt2ALsHoVSs9BTduM32ZnMj5zN9s+IsY6Wlyb20eEhzoAPqT9isWgJK/EURkHrtl6YVqQTITSS0gpFh8Wraxzz7tw8CEtGjK+xwmGA4QI2zfHvJTSBkimUoHGUBrAZ/GXg7asWepWaRi/zc7F+G3RK82CfsaPDfsSLwDGb9/MeSnOnZ+9nMG026cKoNzrmei7ahbj0z84GJ8WHWJ8rxsTB6gYn7/5xIr955JVZzGbAUc5VCQp3Fd6TWt8iDA+K3pl2JYWbXm5YwGq2TFkfFZn5spbpsYqY2CVQ3sfQEaPxDHV/hsZTQnnQ8D4tOiVYVuqZte4NkdMjeRD/mbFC9mLCXT19t/LXGa++Qea0uPHBgC0Y2qWsNn5GZ8XbTO+7eWOjWuDm/4CoSA5OmImrd+arwepJ3spMy9W2nLivyep0cYaDFyMb+3AAT40GF96uaPj2pz7cTrjyyW4CMYSwRob2dPJ9N1QkT3U9mhnHNCJZnz2LzNPl7g2946qXAGLNxes0tgiSPZ0cASBZB+aiuxh5xjOl7pVXIwv+JDkivETgZCQXnFtxkoSMj5784d9s6QimTqnCjKvrtWCwg/QsQJuRTxebv8KmDN+bFybuVQGCPmbvMd/g5lMws61g6laNZ9A7afOvU6b8Qnxx7UFGD8U1+ZxvEHGF29OeQkpk93yYmuYeZ5rMRVOgIrxeYYW40svN813BWX9jB8P0GR8+aaYfZeZmMnQch+MyfYUb6JtdmpFRdM/IhBqtl3woo3dVQ/jB+LaHJv+gvHVvijhq9m9qJ5b9nmmzUWBBR2jKFNkqwHkkcTsaJl6+0EoDS5YUeNAZFwb4tRUjK8Y9I19tRIinD+W6lYifmdFAKBq8DQ9cQ8DDIdrZrhbWXHa94eUqRkV14aEOpgrYDCcJ+9cpKjYAenHVALMDgpgic36t7upSBtVdFU3n4f02xKsUqC0PLUbE9eGuaVzYwVMZWvQEdSsn401FOD2XgJ8NeeimiK56eY2gmAI6NvWNDhTXm5fXFsMQJ3xOYOqDRemdMlKGXCA9ZUEaK4m3DUdCCVwKK3UjI9r820ZQ8YXb/IuX0tFHukXLzm1irgEpvnfNwrwJNegdolrc1ej4kNV5ZzMx5KDOKVs2zA9EP3+bG0SHwvQVtMf16a3eP+mv0KoCIbPEPcyWmQoIJPNowKonQksSEU37U/aREl0XBvi1VArYEUwPC6B81d73QT74k6UZ+2qNRP2hmPWN8R/zqkXwIi4tiJQitrzBm9yunhWinCOgg6wWrPg4pab/TRNVC1kQnFtRRqoRsX44M0hQyiCtwt2VElOTlqAj1u9FL5uFrzap4m6Zd1xbXp2SBPNTcZnsiWD8SMBttMczS900L3n3MjNX+a9AXrUxOPawgALnfG57IbBeJEAm0maNineW6WwP/GDb6e8LRuNa9O93J5SIOMLkS2nc8UBH5p7eGdn98WNvOsJ0KsmFteme7l9e+KA8eWbfOi8lwAX8mBFIzrZOkqpWTY/MUp3sKArrs0xXGIAAR8qguHO4HfOQfmdHGb4qsZRCh1/19WpASJxbZEAgZdbvpkrG7afaxWVkPAb/uxSGkLcX++y0/ZBhpCzRQigtxTA+EK24AjXVAt4aDf52gayO2kfJHZcm0vEWTVmXFvL+EqEXbmQfBHob2rTxymU7mDB2NtbsHP0upebi8wYwgMZHSC+e1/wbFR8dy+Avrg2PSgSLcVgfCZSs6F/dXMFAS7TDgCPmqpB2YjbWwI3IWiMz0XG+gSGpn+1UORyTbSV7XB7i6cUyPhCZG/saCoDXhwgentLoXm5faUYXm6arGDTtYg9PPeK3paN9nJ7SzG83DSZXqB92uEIwoloQsjG3t7iL8X0crfkvdYAHraiHdhVHjFwgHv8fXWAsVnk7S1INZpe7naxB/vg/ZTAxTEZza8/ajG9Q7znbU5tStO0kA+dAfq93GozAQdoxLVRkSwHFpznukasi76Uenb2kfR6+f2zbtPLy3otHl5+vpc1MVs8OtgHvdyBuDbby91WTSUBriqjymVcyYy4AbJ/d9pUVk+PU1020F8DXm5aND6UmYzfirywtcRhY8iK8MyEzln9TVRNZS3Waf95C6/LVb64lzsCoMn4VGTRmoAe/jE6zbNSekS8Fjw4AGpffBehmYwq2uXlNjb0AmSkx7UJkVL+1IvWaV6VMYbeXTVwCscNsI1vjJ4UYF5uXnSAbTXGNx0q5rD3qZQdGiLSKvKmDSwNBcCABVEvd+SvkkHGD5L3QW0pjnQRRRPIICON224BxQF0xbV1A+jwciOHlHdSyS+PrLxjfD1djBZNov8TaSYj3eo4gIiXOxYgYPyI6ZcaJRceWTGn/RINXVw8zB9EIMYypg8S28vtOuaIArS93BHXaCTJu/cuC/LE8tv46vaJtZmnKAtajO9hKASg5eXGZKkis+XheVz4K4N55n68/YoHcP6kcQBNxnc2NFxp3cstf3YtsHdnlyJkaTw0d3k4AAqb3Fdw28QP0O3l7gLQiGvLyXz1kfZbArH55oR2tAefrEQIZuhoGrOOewe/M+o20Oy0uDZ2d+tnVfQAmI/aCIt2RioQYv3qkYVi8IgM+KCnHT/R8LxrRepFZQP0exaZ0vzEGotr4yEtq+4L3u2d2vi/YrcqYf1KhREFky7731tJzFsmcIBaXJtw0j+SrgD3QCEeIuaxtvfee/eDLZscqk4AIeNnPDKbX77WoYk+K8eGEcplFX2DaR+DNOEDv6JgJ0BXXFsrwqL2xr0BCo2+vd1/asl2N+XnQpsUoBa0vNzlV/JyEwDoaKLW5qO3+8vfXuqVeP4TqQPLF9sYMRlfbMp0AKh+00ymWx4k7pj1xK09QmlOUIB+L3eXzVwpK6O514dnmt723nkDrdudkyaGQ+MLh8he3usA1fQDLEwvdwzR21M1fkL/U9y1SwjRjezq/n2TCGutQb44QGdcW5eNX7lcqkNnyOKWS6Gir9UcR8jiAF1xbZ12q8Wa8ekyAEWvh4fkcICuuLZO2/Ei5k38oEAf30SXxpOy8yxfQYAuL3f3JtrKssNeIgju3ABJynZJJrKSC/eb6pCyK66tC0Bx28RAlxVb6GpXK+d/yeRFi+IhD8uqm5kqiVCoGVDa9HJ39xiNtQDigr1bVSlL4qHCHoKysj2mubQhUNPVTtSmvyuuDdpA3uydmQ9cli/gBhLgbKCuWjhRel/KXyXTEeoA3c3OFdfWptGGpdnGeJjNNlrTH7OhaiDyvfYrekya81ZEEapDSjloU549cVdcW4NvgpV2tQeyYzalGXCA5llX7eGYX/Wes26SsiX2BEDCATrj2rIq1M72au+CL9oHbDWx77bY6yJbUmpvELZfTCAkFKArrq3IdqHyHyvpMJYI23wr3Dz+v4Rl+YXaLcKEIowE6IprEyyOlJ9spazGh+ZJdKcx+hlZzCzFSBML0I5rU2Fffo3gBeXsjgKO8OC30zF9kD3QdaviQ7nExQE649rAD0O407+FktUYX7pljhptPKb8aKcA0oaSGIiPJlirdsa1NWnxce1P8wrIAj4k5D0CYFDE1w4+WkY3GN8M+3Ks8VxxbXEJhIgl4jLl+5MbDjywA5EvieJDA6B7EeuKawtP1YAsR/j52KarvtrHVMarLEIgNOPaCpf2rri2LgDFWArSiWlCjW+ggAlQM7BCcMW1dQnlEnx4Pppwyk6gmqYFdaUdcW2d4s+EDc8zVfOKTKIBOuLaugXYyetOLmvKSTRAO66ta7ThGFMkOVUfNB8malMdB+iKa+sGULtR8jJ9kCFUS1w8jMS6vaVTE21lx2dooiELKsanauJxMubtLV0BCj48WvtOlSEQRgDUGb9PxO84ovectg9Cxodebo/S9u0t3QBKPjy/4eDDBKiZ40rbt7eAJipvZy7kAzEA/iLj605gr1Xs21uobDprUlnOWBIPJXtYgChGhPF9Kh4nK/gwFqAnrq3EN2pWuRqHdMY/O01IPpQ+0gBAx+0tjUj1H1pKAg8euxn/LFM18DBRv4GEA3Td3pIZJ9Zc7eRTec9/i/Ehm0X8KhmIa2tFpsGOUMns3Izve/lEsoDxAwDtuDbmpDOv8jIr+Fll52D8c9IEBwoZP8BtTi83KbXrj630A04p2Ix/rqkalJ0oC3aJawMBdtVuSKMHRPiZ9lBD2V9kfI4kGNcm+NCxtPInK0z5EoYDDzbjR8a1AdtH+hJNxj9/H6T/TpSaAYCK8eNXEy4v98VoQvGhjJXAARpxbd0BmozvU/E4mrC+mKgzKThAK66te0TG+HKGAw8TGUWTB5S272vrZkGN8c89VVMigg/PGtdmeLlPp30Hxo//VbIOcW2WiIvxgxY8ur9OgA4BpTvGtdkR+moFfBGa4A8ToGZAaS2urXMT/U3Gjw37knzYD6Bi/KCu3VpxQHZiRHKeKK7NGas2vpzhwEMwrk1tJJlebt32npQD2fHJtY9p8dFxbZaXW8hub+b+NC2kBX+P8QEkNOzLE9cWiFRYjyRAitCn4nE0gYgcHdc2kpp4Snl2Mf7ZDQeqCY1r83u5ZWUMrQMUZimV9MaNg7LnGG2wuDZjZHTFtckbjr2lfFYy2vX3GN8TFWX6JlxxbTndL8XSQF57o134GXqIEImU9ce1Wc4XV1xbTmb4TtRBnQD9NS93CKDDy603503pT1tSKNlfY3xnXJvjMLvkQ2v1L7d5xIP0RIk+COPawtpHiMTXQYe4Nn5+fpMFre05VvC7Xm6qJq40v+q97Avwd73cEQDZoZ4rHhUXOdnWZH+T8fW4No8Le8PePPQFqOLaLkMT/KFDXBu5ZW9WPcO+/kxcm19p/iNEd/0s+Gfi2pB9FnFqtbKioqIOZ/2RuDYsjET8JMnBVxmB02e/5uWGcW3IEdc0FbeH8OG0c1TUL8e1cScwrvQLz2Lew4J0sfyLjM+dwJgFCaVE9uYS8ad6D0ju0AE+rGsXXIrxnwIArZgantbiPHaHM7zipPP5DQdl74Ca4X6VEXnMPVnf8Hs14tNjjEZhkW6yOwApYuDI0nuQxfvbsku6/ndq7WNkNUi8TaH+we0PyKpXOqoPdu6v+64Am+/tyw4v2+w6FX2fw1iJUBMV88u9L/OLjiBxRXtvb0HJm4xWZ9PotLKfpdkWoyN+F0v+I3J/On1b9z90ipOp90+hncTfTd87q1F2Asi/qLbbiiX1YH0xGm3bNOL/Ig+jxQZcD8mOvLPD7zNrH6/e7eq6+V+Tpu1/9HqaIU3j8bB2xZb0iXTCrnog5oMM/c4MWXlHgRSxwsXtDb2IZHa2vnEycbKdr9E4XtZe4vZW+lS3kZy5bi8MMOIi21MXfZlSLt5EYaxET6Vd56PP20T71u3/NRWfYMvQCacAAAAASUVORK5CYII=;" vertex="1" parent="1">
          <mxGeometry x="409" y="206" width="70" height="70" as="geometry" />
        </mxCell>
        <mxCell id="8MRoet4LOUmmTuBpo7ne-94" value="&lt;font color=&quot;#000000&quot;&gt;MÃ³dulo de limpieza&lt;br&gt;&lt;/font&gt;" style="text;html=1;align=center;verticalAlign=middle;resizable=0;points=[];autosize=1;strokeColor=none;fillColor=none;fontColor=#FFFFFF;fontStyle=1;" vertex="1" parent="1">
          <mxGeometry x="373" y="176" width="130" height="30" as="geometry" />
        </mxCell>
        <mxCell id="8MRoet4LOUmmTuBpo7ne-96" value="rawData" style="text;html=1;align=center;verticalAlign=middle;resizable=0;points=[];autosize=1;strokeColor=none;fillColor=none;fontColor=#000000;rotation=-90;" vertex="1" parent="1">
          <mxGeometry x="383" y="317" width="70" height="30" as="geometry" />
        </mxCell>
        <mxCell id="8MRoet4LOUmmTuBpo7ne-98" value="cleanData" style="text;html=1;align=center;verticalAlign=middle;resizable=0;points=[];autosize=1;strokeColor=none;fillColor=none;fontColor=#000000;rotation=-90;" vertex="1" parent="1">
          <mxGeometry x="409" y="317" width="80" height="30" as="geometry" />
        </mxCell>
        <mxCell id="8MRoet4LOUmmTuBpo7ne-99" value="&lt;font color=&quot;#000000&quot;&gt;MÃ³dulo de anÃ¡lisis&lt;br&gt;&lt;/font&gt;" style="text;html=1;align=center;verticalAlign=middle;resizable=0;points=[];autosize=1;strokeColor=none;fillColor=none;fontColor=#FFFFFF;fontStyle=1;" vertex="1" parent="1">
          <mxGeometry x="503" y="176" width="130" height="30" as="geometry" />
        </mxCell>
        <mxCell id="8MRoet4LOUmmTuBpo7ne-109" style="edgeStyle=orthogonalEdgeStyle;rounded=1;orthogonalLoop=1;jettySize=auto;html=1;entryX=0.3;entryY=0.988;entryDx=0;entryDy=0;entryPerimeter=0;fontColor=#000000;" edge="1" parent="1" source="8MRoet4LOUmmTuBpo7ne-107" target="8MRoet4LOUmmTuBpo7ne-85">
          <mxGeometry relative="1" as="geometry">
            <Array as="points">
              <mxPoint x="563" y="511" />
              <mxPoint x="334" y="511" />
            </Array>
          </mxGeometry>
        </mxCell>
        <mxCell id="8MRoet4LOUmmTuBpo7ne-107" value="" style="shape=image;verticalLabelPosition=bottom;labelBackgroundColor=default;verticalAlign=top;aspect=fixed;imageAspect=0;image=data:image/png,iVBORw0KGgoAAAANSUhEUgAAAOEAAADhCAMAAAAJbSJIAAAAhFBMVEX///8AAAD8/Pz4+Pj19fXNzc3v7++8vLx2dnbb29vHx8ft7e3Q0NDj4+OUlJSpqal+fn7Dw8M/Pz+dnZ1ISEhPT08uLi7W1tZubm62trYiIiKLi4uIiIhWVlbn5+dmZmYUFBReXl4bGxs4ODhpaWmioqIeHh5SUlIqKiqvr68MDAxBQUH3eoDvAAATOklEQVR4nO1d6ZaqvBIVRBRn26mdRXvQ9v3f7zq0kF2phISE9qxv3f3vNEegSM1VqdRq/8f/YY7eqP+RbtKP/qj36lepAr3VIchxWP3XiJynAcVm/uqX8oioJdF3Qyt69Yv5QnfJEnjl1carX80Pzgr6bji/+uV84FNDYBB8vvr13LHQEhgEi1e/oCuSAgKDIHn1K7ohVCmZHMvw1S/phFUhgUGwevVLumBrQGAQbF/9mg4YGlE4fPVrlkdHIuYwmU4O0l/jP36vXnP1sduku9a44fhoausvo9sN49GE/P1P7X5vNRMe/bNputwsRUL62YUxXtg5v7YxEvJONwxKa/MIbzQWLg3w0l+54BGvGGbtkvdDa7+Bax9w7Y+sfqK0ziUtFoohUoFK6G8EcaSi7/b9S3FqHziBXJyKF/vs7z2jqSEwCN7KkAgODeWDvu5iFehqCQyC7xL3BLGmYRLomj+w+UTtMVjb3xQoHJCLEDb+AYVpIYXByPqmwKVU1ID86inUC+EDs7rtXcGuX8hFuHflchgeDSgEi20E/G49zbXKcxkmS3iF7W3R5qXipfALrnX90cKDesJBcNxMZ9Ifbe0yYQ1BEsMNXKk8zKdBznLQuf05WZO/U1EqBLlB+mTU5IIXDp/WMm4H4ganmR+ckFCuY3njOeWCVrvX6Y3eJe64flTPNCFSeJjoIXf2cMk6lJLZX4l9lTQCGQdgmDa8hbXZwp8X4HCuShxjeA5R3N/itQ1/Aw2IwBXgWFF6GKWFJL4gZX20vndxQhjx5pRTUKEBj9C94sle5U2DIuzQLM3svcNCgLBMyUWwJF/WmSm+cEgeOEAaJ2VzCko0yAMBQP7SNp9STODp9tHCAZqlqee6IoSG1L+Gd7SVw2ICD79cEZIanN8SOKbeMZ0S/4jXUsUdFGAsO0Eq2IdPeFSw8ZmdgltjpIuf1i66yFZwMTrxBKKRj8boX+z80Qg270dkU1JZsWKdjMCrw14nKeA7hpITGPXxf7z7aknBhRKi0Tr59kMLXZoR+Fio8IyBxteYvZdEo5+6FFmpLARoyDWUlak2zWQw58TtojU5Lg/L4+T9rGbAiJQch15opA7y+yjpJYtNwGFsRGO2gjR6j+KoyPvsUBptQxoGhjH+A3sDfZMRaJ35uCMmgeXava5hlKfJURTsZyxaOpcdkxLK2jVE1mX0Ocy0DnK2gi7J+i2hsa9ex3g+HqaXt8lm2G8oOTq1JDG4qB1kLwRe0UMa92N+HUcfoBDTBS/nGCPyIMLxpkiQZQSWyJITbLEGt2eSjme5YKZQFMV8eq7VCY1TzgPIZNCdwCt6SCMt13Z5Z2nPMlif/b857h+mQ4RDdqyyFfSVqE+QxqWY6lC/M/t5ae4Q8WSQHnGnidOREdjyRGBNKr3PslQHWV8AW/HkfMcnhGXv4QPBlcsIfPdH4I1GdD5OD03OeyRPHDkSG1+K/71BHTwn914/aczW1y+B8iNvqY6i4HPC3SdiOfUkZ8DaxM97GKuKVvCBLtI4KdIbKlW3lb7MjLcvTdTSNw2d/dQyUDam0S41GQSKfE+42GUvv5+M1RHagkQeacUEXtGwyKFfMVP7+NtuY7QYNRK9Mxh+su0p1RF4hdQwpoV7oYAL3cs1ppijbcGrBw/Po/FqicS/NZpyZTOYfbaTxkBKP3vJLpM4J1XncuJR/+N4+Fke3/sjt6ZHUg4M9s9QJ3nDC55aAnuofzdsOjdapPglFg4RHylpHQRzjU+xLsyrQMTxW446+rIzsSwX/9/vhncS9T2prHtqEJCTIFO8syJw2ZdN3qPxxzAUm7v8lOvYLM8mp7Gu9q9KRlioTklYP/HwAERG4AgVwFMeI10SqJTxxDQu7bgDFvahajIObEj28fumVzty0lUErXWZIAahpoEoiIQH9yNbwceKhagEJnPS6yCjxDsghTQbBIrW3TxnBGZebow+ABaUONjnq+pg8qmoQWey8xrKBNbkfG4R7EtMoGnoMkHk7xrHERbNQPO5etj3P6Twe9SlWPEsb3PvUBF4Rae4/JvD2mihQkM2RQZyc0xZFs3QM6eR9n8UgrRsi64wceicCpCZVla1TtBc5xXpOekkZymFZF20J7/PawzEe1qWJe4GDYtmILb++NQpCblgnVuluuz78Y1oqtOprqBn0QdIQ5QQG5P+Ujbzp0OPckFwag2HsvPkwKQmBJIwbimGS3VMgFjXQM2E3MEaiq6aGujfoFpraq4ZoLiR5YbyTTkmMlgj0rInF8GbszRbkVk+qnxlwYhFa2RLBXWugHw7jdBjEjUMvkrXxgvNxBMgLLT2By0uVmGcaVtu6eY4QxatEQpp7rL0vieahlKhdLLUlEVrhELKiKCGLNbQ1K0v7ZFaEIgKj/rXoCyM5bCe5j8a6urWpfdsGstgrTMgCg+t77bU+8SCjrkK9laV//4p3fRnKoOdgexffMD/SOGa4QuJHvfjE5/ZFEL5jWJmLLr95Ju7xa+C6uLHTK8L0fvxyRH1T2o6DuvyXWImBPY+ldZ4n4cApCPYLCMm6KaN4AGG3XXOMMth06FDrNhV24717WO/IcCcrrFRCCzEYpJxqSfN8+C86JpTF8XxdhvHUFooksFeAXkPpC25weBg8GKxcHPXve1Re735TdedduNMB+hZNBmzzPnG/VGCga1IBI3iWIvoDUkN5fjwDXRmIuFXb7eIQyMKi3tkhUhk5tZtGu+YF/hZ6Fi012dr3R/NED6MDsuiQFXIPO3cSswqly/N9DSuYJj0udU7tdrZe5jlFfW7nQTvz7HdUddFxRA4X3Fitlx3RQUVFm98ukHjRUbCVgK3YllYHFYKBCYrNkhbzSkXRcXTvm5QJqe3wnPcNmCExXrvKYNX5uQuz/rsG9TN4tUjr0GETVkXx05oTscgHisYztnVm46VH1iMByg+hHtxWRVBM7h2O+oaEx+4C/mcSdldfZWBXuGrbr5f1CJBTmVLLgSDjhUIk8Fqk1p3zXny3+dil6TH6pv+XWYFTUkDYcH9cd6TqO/VVGK/M3V0Gyn56THbgy+s8AY2XeUcPHPeANUISmDfsmr86Y3TrPC1WYlCJ3gsx5yUbl4mS913lMhqRtVMm2HYtldt0ba9OC/aW/rCiVDze7KjsMXaQ8s4GRtxPN9evjNWluC/1p63sUZCOuKhUoRauY9RBOitZVqLb4R5W1UxxFnIWrXCWpj/s3RbEQCYVPxkkld54a26Bwj6Zprk7tXRzwZEkQY0rOjofHvYJ6cEG4akfrpVYUsQEoFKlm1/9wY6SSXwN8dNJIMkhbDVz35UlBU61Pf3NiZDrOVRzwny1tYTBywRQvx28KfRxOke1DuCKOJQ+ShV8XEedZpIIa3GQiGk6jWsgfvocQ1FLqUuPLjMFcvh1fKjf+xNDkVNQ9QlNj1Uq0uvsRn1onzpUhiaiC4EejWV2kM2EebJHoLFhzmeUoOzbpuQK3K1LXxXTz4NKGkhVGEr5hURuc3dp7b4YD9+Kal1/XqmdNuv8GH9E5nTtLyt2lZo5fYRW0g7uYefg7E+NTXrlyIyrEd1TrRyO/greWEqvI0Lbb8oTrQxsI0zes3h7nL6ml12wyZ+nignJ0/VCBGihxi/VBbjiqMxkfUB1twng9y2JnlCRrSAgiPinqfBITwKfKbcXw8mRIbcKRCrUKIEbyX2Njrn2uR2RpnAKzc1P7je+9NayuUjVLNT7gWZPMqeUHMbCx6Va760cODAk4HiJtsWeFyrnchQ3Sr5HgpEtOTPJP7UeYd/cV3mWQKrN9ki1UlBZKjb9HnJo15+kYSehomjV2xQQBGqfKN3NhG37krroN32JEDVYioqQcdgo2NFYi1qv3M7mpaUSLNsukZZ9oRP5BhsGHxt/NBRm5Ww2VDoJTA5SicIpjoGFI2/a7ChLElnC0GVdsgTuR/+epNm0z2LWhOFz+RYx681WE5tRXkUxdildost8w4bdZqNVKC4P0Y0/o4RHB0cd6PvboZ1JNbqjSFH5HKoP3PtCYPoQeyncQ02wvlQ0CCbgTS3hH/AlUgjajiY7LKMBZvj4byPuH0e9MeDBWjnbBWV37AxLNpOuWv24l5T8vONrIAg8FKwET762gpcK/NHaNquGkONzZlku4KIe2HWBC2wPFRSk35+u8vKKQdpQmKt3l0r+ksENRjiMhruChIi/7ySuqDO2MRl2HImi3q2CudcduAkkhGW2hW0FX710HgjzoZfHNYxW8VCyemuKbui+GJEavzZ0/w311gnTgMeDudlmJNYq82Bf+hWQCijm4dGgvEfttXbqB2ykIaMeod2ugEwssU3Lzr18xcOgUi2isXMDo/U7gqyyTUZjnl3yM9nJBblTvD8IW+7giDy18Bho/qTxKJtG9ggTEXN5UQrs/2VDqHWUxb3BasIz6P7OSHytw2KjPxdw10cLAwZFX04FH1MfVl7mkbpT5dMcsao2rpJCs/ra65Zm+iiQ9QecKnqPElc6m5C8neifUE2s+cns5FmThmBpyzqSKSslIs+aTi13nMtM+luPGYim1KkPZExqsqnDM9SpupyC/tr9TaN/K21Xoq/X/7eYE5T926bTzJGZUmsD9gIY5++byRf68e2xYOc9CfksYhgOCaunozKZE7Cz8LuTQHW46qwQQyq1hjVWJ/BRfBcxRNZg7C4RACw7tLBhAkqYgynnOir5STCzvfYkr4SNRdw24h3hp65cxfAk8RjtgzxCsWseE5UCU6CdSLlgA480b3p6CmLx8cq0jG9l27xJgD7z4zbcKhfBabSQ5tDJouRPO37css0SKfLEZRQ6DGYIarngIV9HKyUMWpC6ftNTehdyDKvoF/Do+vtJfCDVITTE5jO2Cd+yplkIILcAl16Px33DIlf4KVEqlaP75LdnLp5DFjs8tTeSAPSkxQMjbg88VfpEBUeiE2vRLN5asSL4P2X7HHzC5p6uDicdohHmot5NTKg9af0IwDooQ1USa7eOPeLp26bGkgyapbdLCYJcC9zm0l2Tx/pdRrN5kh9UorpIyWn/uNOo+xNeWiJkyZPHytvlG6yp3b8TL+Zvzs7bfQAgRveqiWxaTbE4AHXnuYu34LzVmEzOFuIUUNVDumcn1thJ/2RckXIqRpBXjisrN+dtTka8GNDQzJZPHhn3QI69fG9JzS9ViOLnEjowTYhnZnPNJVcKzqdNL2rsm1mNSqQxbZZKl/EB3ObniJJhz11EXGxs0OR8vGvR8+MKon8slmc2Wc8CvUktFPuwNMTCi8CF3cyQ+VVFrt0/e5uYRHTMvl47Vf5XaeQbJ0lJxTnsuiPUbupRN99dSJ9VphRHwUtdndRIynCveQ75+O7PRkNqrKFY7siXWMzE1QUSnKntsD1O3A+UZT9Hx+MSg6zokevKbdLTJiwrHgg6Bsy/mHMxwad3Gi4kpjQuFJ6Zpv3AJgT6Eg8YgD1cYR5S4ibLCbSR2cOCA2Z1PqKi6vj4qQfQHtsZp7Pc5DFrdRp3VfcrA1fYqM4+8Su667o0Nx8sn9ZWdxK66ei746kOR6+vw/7TWXap0Pvt2mtWyp7Y3AMsaMDRw/oVDCeDUhZfPUIUZmJ46ZHSW+z9NpFJDEZDfqr/qCp7SGkWVcP9NFqRk6DtBOEPbWSA+PAQdPlZKBYXPnQAZuDpJWvoyBQItHiTBPiwDHlmhbDDfLBET6OOyZ0oBlHT86miAIOHD9GiR7yG0uN/X6OrMaq+glFBDPIyoo2B8FoqDzIk8j08u4vT8eO13D3Ie1BQWfOKgcY68/QuSPLHdOQxSd9WI+iqQ0UfLtCR4fNiiEeQsHQ53UfrhjXa6dG2PYubQ3m7S1uhyjR1f7wPAVHfA+6hqhqOJdWBxNvsCEF3qn3KT+iOaRyiKbSuv8sNpuaWC19KIfk7E5S3rRugzecCynQ5+m0OwS4ubhMxDm1LsdZbhL/rmLIVo26paISoy6GrQK32yM+9TwjLQcOh/jJE6mUQOuzp+TUyP6k2jk0qYw+2q58lYX7syK5CGK72VhqOu8nnajDTj+deOkpUCKlz1tONm/Mt7Y9DobwwO4ZT0iF/Vm19BnvYbDtEiMlZ7FBz2+DXTHqZjrdtpcRUwdYzEMlXf38KbO9nrbvgU2SaMixVaoiIyEgNPCR7XsIISqkehg42McImgIYGC7rE+6weUd7zoyviVfGb8PC3l0EdaLdFeSwm84cRbMPSuzMhNiSUggs7GOKUDH0pZkykgJ8QZdpqrtYEXRecqkWNBC1L7yG7fZ/IYfSG4koOcEQbRC6LZh9+wNd+sCcL1a1SlYf0KOfiZfITKNKgkIeC+acptI5ITIkTZjY1SNOb/U+jQCcGTB1mj1H4uesoZRWK720EFqgvl3016334eqz7VgykAT7uG62m/LhA7YJrn8HBhPE7vCY+/1rpEYEOk/xeiGq3+r5cpjk2qy3rv1TkKZqyji9+h0dUXykVVWD+v8MRXv1XKbJ/CPQd7J4mPn0euhW8T+wgjeMVDW2WfUZqD9CzLeurj0N6/4nMJcNo886/T+BnnjK5c90UO149xdh2/1cD1vD9WD+nyTvZfgfRuH9eG9varYAAAAASUVORK5CYII=;" vertex="1" parent="1">
          <mxGeometry x="523" y="211" width="66" height="66" as="geometry" />
        </mxCell>
        <mxCell id="8MRoet4LOUmmTuBpo7ne-108" value="cleanData" style="text;html=1;align=center;verticalAlign=middle;resizable=0;points=[];autosize=1;strokeColor=none;fillColor=none;fontColor=#000000;rotation=-90;" vertex="1" parent="1">
          <mxGeometry x="483" y="317" width="80" height="30" as="geometry" />
        </mxCell>
        <mxCell id="8MRoet4LOUmmTuBpo7ne-110" value="patterns, analysis, results" style="text;html=1;align=center;verticalAlign=middle;resizable=0;points=[];autosize=1;strokeColor=none;fillColor=none;fontColor=#000000;rotation=-90;" vertex="1" parent="1">
          <mxGeometry x="473" y="356" width="160" height="30" as="geometry" />
        </mxCell>
        <mxCell id="8MRoet4LOUmmTuBpo7ne-118" style="edgeStyle=orthogonalEdgeStyle;rounded=1;orthogonalLoop=1;jettySize=auto;html=1;fontColor=#000000;" edge="1" parent="1" source="8MRoet4LOUmmTuBpo7ne-111">
          <mxGeometry relative="1" as="geometry">
            <mxPoint x="453" y="607" as="targetPoint" />
          </mxGeometry>
        </mxCell>
        <mxCell id="8MRoet4LOUmmTuBpo7ne-111" value="" style="pointerEvents=1;shadow=0;dashed=0;html=1;strokeColor=none;fillColor=#000000;aspect=fixed;labelPosition=center;verticalLabelPosition=bottom;verticalAlign=top;align=center;outlineConnect=0;shape=mxgraph.vvd.nsx_dashboard;rounded=1;labelBackgroundColor=#00FFFF;labelBorderColor=default;fontColor=#000000;" vertex="1" parent="1">
          <mxGeometry x="241" y="562" width="96.77" height="90" as="geometry" />
        </mxCell>
        <mxCell id="8MRoet4LOUmmTuBpo7ne-112" value="&lt;font color=&quot;#000000&quot;&gt;MÃ³dulo de visualizaciÃ³n&lt;br&gt;&lt;/font&gt;" style="text;html=1;align=center;verticalAlign=middle;resizable=0;points=[];autosize=1;strokeColor=none;fillColor=none;fontColor=#FFFFFF;fontStyle=1;" vertex="1" parent="1">
          <mxGeometry x="223" y="659" width="160" height="30" as="geometry" />
        </mxCell>
        <mxCell id="8MRoet4LOUmmTuBpo7ne-114" value="patterns, analysis, results" style="text;html=1;align=center;verticalAlign=middle;resizable=0;points=[];autosize=1;strokeColor=none;fillColor=none;fontColor=#000000;rotation=-90;" vertex="1" parent="1">
          <mxGeometry x="197" y="466" width="160" height="30" as="geometry" />
        </mxCell>
        <mxCell id="8MRoet4LOUmmTuBpo7ne-116" value="" style="shape=image;verticalLabelPosition=bottom;labelBackgroundColor=default;verticalAlign=top;aspect=fixed;imageAspect=0;image=https://cdn-icons-png.flaticon.com/512/1124/1124082.png;" vertex="1" parent="1">
          <mxGeometry x="453" y="562" width="100" height="100" as="geometry" />
        </mxCell>
        <mxCell id="8MRoet4LOUmmTuBpo7ne-117" value="&lt;font color=&quot;#000000&quot;&gt;Expertos&lt;br&gt;&lt;/font&gt;" style="text;html=1;align=center;verticalAlign=middle;resizable=0;points=[];autosize=1;strokeColor=none;fillColor=none;fontColor=#FFFFFF;fontStyle=1;" vertex="1" parent="1">
          <mxGeometry x="462" y="659" width="70" height="30" as="geometry" />
        </mxCell>
        <mxCell id="8MRoet4LOUmmTuBpo7ne-119" value="Dashboard" style="text;html=1;align=center;verticalAlign=middle;resizable=0;points=[];autosize=1;strokeColor=none;fillColor=none;fontColor=#000000;rotation=0;" vertex="1" parent="1">
          <mxGeometry x="356" y="582" width="80" height="30" as="geometry" />
        </mxCell>
      </root>
    </mxGraphModel>
  </diagram>
</mxfile>
